<svg xmlns="http://www.w3.org/2000/svg" xmlns:xlink="http://www.w3.org/1999/xlink" width="500" zoomAndPan="magnify" viewBox="0 0 375 374.999991" height="500" preserveAspectRatio="xMidYMid meet" version="1.0"><path fill="#36b44c" d="M 190.3125 296.136719 C 196.515625 294.691406 201.039062 292.257812 203.9375 288.78125 C 206.839844 285.363281 208.230469 281.019531 208.230469 275.804688 C 208.230469 271.285156 206.953125 267.113281 204.402344 263.175781 C 201.851562 259.292969 197.15625 255.007812 190.3125 250.429688 Z M 181.035156 163.648438 C 175.816406 164.109375 171.582031 165.5 168.394531 167.933594 C 163.40625 171.757812 160.855469 176.277344 160.855469 181.664062 C 160.855469 184.964844 162.015625 188.269531 164.335938 191.628906 C 166.65625 194.988281 172.222656 199.507812 180.976562 205.128906 L 180.976562 163.648438 Z M 190.3125 211.09375 C 207.535156 222.21875 218.492188 230.5 223.246094 236.0625 C 229.625 243.535156 232.816406 252.339844 232.816406 262.421875 C 232.816406 273.488281 229.046875 282.8125 221.566406 290.460938 C 214.085938 298.109375 203.648438 302.511719 190.3125 303.667969 L 190.3125 316.472656 L 181.035156 316.472656 L 181.035156 304.539062 C 173.4375 304.421875 166.65625 303.785156 160.796875 302.683594 C 154.882812 301.582031 148.15625 299.554688 140.5625 296.601562 L 140.5625 261.667969 L 145.199219 261.667969 C 146.648438 269.605469 148.910156 276.035156 151.925781 280.902344 C 155 285.828125 158.882812 289.535156 163.582031 292.023438 C 168.277344 294.515625 174.078125 296.023438 181.035156 296.660156 L 181.035156 244.347656 C 163.695312 232.761719 152.160156 223.722656 146.417969 217.175781 C 140.675781 210.628906 137.835938 203.097656 137.835938 194.410156 C 137.835938 185.023438 141.429688 176.796875 148.621094 169.613281 C 155.8125 162.429688 166.597656 157.96875 180.976562 156.175781 L 180.976562 151.078125 L 190.253906 151.078125 L 190.253906 156.175781 C 202.488281 157.042969 214.839844 160.808594 227.25 167.472656 L 227.25 198.636719 L 223.015625 198.636719 C 220.929688 191.570312 218.433594 185.835938 215.476562 181.257812 C 212.578125 176.742188 208.808594 172.859375 204.171875 169.613281 C 200.632812 167.238281 195.996094 165.269531 190.195312 163.707031 Z M 192.804688 119.039062 C 191.414062 119.503906 190.601562 119.910156 190.660156 120.140625 C 191.183594 121.589844 193.5 123.09375 195.53125 123.558594 L 195.648438 123.558594 C 195.472656 123.09375 195.183594 122.457031 194.71875 121.53125 C 194.253906 120.605469 193.617188 119.792969 192.921875 119.097656 Z M 213.738281 113.824219 C 212.984375 115.855469 213.214844 118.054688 215.128906 120.429688 C 221.390625 128.25 255.777344 125.121094 272.941406 149.046875 C 290.105469 172.976562 281.8125 220.882812 295.84375 251.066406 C 309.933594 281.25 337.476562 322.382812 325.53125 331.707031 C 313.53125 341.09375 229.683594 337.964844 184.917969 337.964844 C 140.15625 337.964844 37.523438 354.59375 38.566406 334.316406 C 39.609375 314.039062 59.382812 296.832031 59.382812 282.8125 C 59.382812 268.738281 55.207031 232.875 71.90625 208.429688 C 88.546875 183.980469 89.070312 159.011719 102.640625 150.148438 C 116.207031 141.285156 135.457031 133 145.894531 126.222656 C 152.855469 121.703125 157.027344 119.273438 159 116.316406 C 163.582031 115.96875 167.8125 115.5625 171.582031 115.101562 L 171.292969 115.273438 C 166.363281 117.9375 161.261719 121.878906 156.449219 127.035156 C 151.867188 131.957031 146.476562 136.59375 141.082031 141.226562 C 128.441406 152.121094 115.917969 162.894531 112.613281 177.78125 C 126.007812 173.496094 125.136719 176.914062 129.429688 164.921875 C 132.039062 157.738281 135.863281 153.335938 144.792969 145.628906 C 150.300781 140.878906 155.230469 135.085938 160.042969 129.929688 C 164.394531 125.296875 169.148438 121.53125 173.496094 119.214844 C 177.671875 116.953125 181.554688 116.433594 184.976562 116.316406 C 186.078125 116.257812 187.585938 116.953125 188.515625 117.128906 C 185.847656 118.867188 184.398438 120.660156 185.035156 122.515625 C 186.136719 125.585938 190.3125 128.597656 193.792969 129.46875 C 195.066406 129.816406 196.34375 129.875 197.503906 129.640625 C 199.125 129.292969 200.460938 128.367188 201.15625 126.746094 C 201.96875 124.949219 201.792969 122.398438 200.054688 118.867188 C 199.765625 118.34375 199.472656 117.824219 199.183594 117.359375 C 203.707031 116.085938 209.273438 114.867188 213.738281 113.824219 Z M 157.320312 100.210938 C 157.320312 100.210938 93.765625 51.839844 105.25 47.144531 C 114.757812 43.265625 123.222656 45.464844 130.53125 47.203125 C 135.980469 49.058594 145.488281 53.980469 155 67.25 C 169.613281 87.523438 169.089844 93.722656 169.089844 93.722656 C 169.089844 93.722656 169.785156 65.742188 140.445312 44.019531 C 145.085938 36.253906 148.503906 20.902344 156.21875 26.289062 C 166.65625 33.589844 161.4375 33.070312 190.601562 23.683594 C 195.703125 22.0625 199.359375 21.367188 202.023438 21.367188 C 203.648438 23.800781 205.039062 27.332031 205.097656 30.519531 C 205.214844 35.734375 203.765625 50.5625 202.257812 59.484375 C 200.75 68.40625 198.023438 79.125 198.023438 79.125 C 198.023438 79.125 205.910156 59.949219 207.1875 51.898438 C 208.460938 43.84375 211.070312 29.476562 211.070312 29.476562 C 211.417969 33.125 211.070312 36.023438 219.769531 36.777344 C 228.464844 37.472656 221.335938 20.09375 237.453125 29.476562 C 253.574219 38.863281 268.707031 37.820312 262.96875 48.710938 C 257.226562 59.660156 229.105469 101.253906 224.929688 103.863281 C 223.945312 104.5 222.492188 105.308594 220.984375 106.292969 C 218.898438 106.757812 205.445312 109.65625 195.53125 113.59375 C 192.746094 111.683594 189.269531 110.8125 185.382812 110.929688 C 182.714844 111.046875 179.816406 111.625 176.800781 112.726562 C 170.886719 112.609375 165.148438 112.03125 160.390625 111.335938 L 160.390625 111.160156 C 160.449219 104.847656 157.320312 100.210938 157.320312 100.210938 Z M 157.320312 100.210938 " fill-opacity="1" fill-rule="evenodd"/></svg>